<?xml version="1.0" encoding="UTF-8"?>
<svg xmlns="http://www.w3.org/2000/svg" xmlns:xlink="http://www.w3.org/1999/xlink" width="1035px" height="800px" viewBox="0 0 1035 800" version="1.1">
<defs>
<radialGradient id="radial0" gradientUnits="userSpaceOnUse" cx="583.0903" cy="306" fx="583.0903" fy="306" r="82.1051" gradientTransform="matrix(1.306818,0,0,1.30719,0,0)">
<stop offset="0.3543" style="stop-color:rgb(0%,68.235294%,93.72549%);stop-opacity:0.65098;"/>
<stop offset="0.4201" style="stop-color:rgb(0%,61.176471%,87.45098%);stop-opacity:0.682353;"/>
<stop offset="0.5192" style="stop-color:rgb(0%,52.54902%,80%);stop-opacity:0.729412;"/>
<stop offset="0.6175" style="stop-color:rgb(0%,45.098039%,73.72549%);stop-opacity:0.780392;"/>
<stop offset="0.7131" style="stop-color:rgb(0.392157%,39.607843%,69.411765%);stop-opacity:0.823529;"/>
<stop offset="0.8051" style="stop-color:rgb(15.294118%,35.294118%,66.27451%);stop-opacity:0.870588;"/>
<stop offset="0.8922" style="stop-color:rgb(19.607843%,32.54902%,64.313725%);stop-opacity:0.913725;"/>
<stop offset="0.969" style="stop-color:rgb(20.784314%,31.764706%,63.921569%);stop-opacity:0.94902;"/>
</radialGradient>
</defs>
<g id="surface1">
<path style=" stroke:none;fill-rule:nonzero;fill:url(#radial0);" d="M 869.296875 400 C 869.296875 459.277344 821.253906 507.332031 761.992188 507.332031 C 702.730469 507.332031 654.691406 459.277344 654.691406 400 C 654.691406 340.722656 702.730469 292.667969 761.992188 292.667969 C 821.253906 292.667969 869.296875 340.722656 869.296875 400 Z M 869.296875 400 "/>
<path style=" stroke:none;fill-rule:nonzero;fill:rgb(100%,100%,100%);fill-opacity:1;" d="M 725.871094 344.730469 L 750.792969 344.730469 L 788.089844 450.171875 L 764.199219 450.171875 L 757.25 428.496094 L 718.421875 428.496094 L 711.273438 450.171875 L 688.234375 450.171875 Z M 724.421875 410.328125 L 751.421875 410.328125 L 738.105469 368.835938 Z M 724.421875 410.328125 "/>
<path style=" stroke:none;fill-rule:nonzero;fill:rgb(100%,100%,100%);fill-opacity:1;" d="M 821.597656 450.171875 L 799.707031 450.171875 L 799.707031 344.730469 L 821.597656 344.730469 Z M 821.597656 450.171875 "/>
<path style=" stroke:none;fill-rule:nonzero;fill:rgb(15.686275%,15.686275%,16.078431%);fill-opacity:1;" d="M 275.84375 355.894531 C 278.128906 360.378906 278.625 365.738281 277.347656 371.988281 C 275.960938 378.429688 273.214844 383.59375 269.125 387.515625 C 266.878906 389.710938 263.808594 391.710938 259.898438 393.53125 C 264.851562 395.488281 268.25 398.589844 270.09375 402.824219 C 271.921875 407.070312 272.195312 412.222656 270.917969 418.273438 C 269.582031 424.523438 266.8125 430.128906 262.617188 435.085938 C 259.898438 438.378906 256.804688 441.136719 253.328125 443.386719 C 249.417969 445.960938 245.066406 447.726562 240.273438 448.679688 C 235.476562 449.632812 230.390625 450.105469 225.007812 450.105469 L 177.230469 450.105469 L 199.617188 344.667969 L 250.816406 344.667969 C 263.691406 344.851562 272.027344 348.601562 275.84375 355.894531 Z M 208.046875 403.671875 L 202.113281 431.789062 L 228 431.789062 C 232.625 431.789062 236.339844 431.175781 239.160156 429.933594 C 244.363281 427.648438 247.640625 423.253906 249.027344 416.769531 C 250.175781 411.292969 248.6875 407.515625 244.597656 405.464844 C 242.308594 404.3125 238.875 403.726562 234.300781 403.671875 Z M 216.695312 362.980469 L 211.757812 386.234375 L 237.644531 386.234375 C 242.269531 386.234375 246.21875 385.359375 249.484375 383.621094 C 252.75 381.882812 254.855469 378.796875 255.808594 374.351562 C 256.816406 369.4375 255.601562 366.195312 252.164062 364.628906 C 249.066406 363.53125 244.964844 362.980469 239.867188 362.980469 Z M 216.695312 362.980469 "/>
<path style=" stroke:none;fill-rule:nonzero;fill:rgb(15.686275%,15.686275%,16.078431%);fill-opacity:1;" d="M 342.921875 370.417969 L 338.492188 391.308594 C 337.25 391.164062 336.125 391.070312 335.132812 391.019531 C 334.128906 390.96875 333.316406 390.953125 332.703125 390.953125 C 324.496094 390.953125 318.417969 393.621094 314.460938 398.96875 C 312.265625 401.972656 310.5 406.601562 309.167969 412.851562 L 301.300781 450.117188 L 280.769531 450.117188 L 297.289062 372.144531 L 316.746094 372.144531 L 313.882812 385.738281 C 318.132812 380.535156 321.609375 376.992188 324.324219 375.085938 C 328.859375 371.894531 334.167969 370.289062 340.269531 370.289062 C 340.648438 370.289062 340.976562 370.300781 341.238281 370.328125 C 341.511719 370.328125 342.074219 370.367188 342.921875 370.417969 Z M 342.921875 370.417969 "/>
<path style=" stroke:none;fill-rule:nonzero;fill:rgb(15.686275%,15.686275%,16.078431%);fill-opacity:1;" d="M 354.800781 372.128906 L 375.476562 372.128906 L 358.957031 450.105469 L 338.28125 450.105469 Z M 377.472656 362.835938 L 356.800781 362.835938 L 360.800781 344.027344 L 381.472656 344.027344 Z M 377.472656 362.835938 "/>
<path style=" stroke:none;fill-rule:nonzero;fill:rgb(15.686275%,15.686275%,16.078431%);fill-opacity:1;" d="M 453.558594 385.230469 C 455.648438 389.855469 456.484375 395.214844 456.066406 401.320312 C 455.871094 404.902344 455.019531 410.050781 453.492188 416.769531 L 400.132812 416.769531 C 398.75 424.589844 400.042969 430.078125 404.003906 433.230469 C 406.382812 435.191406 409.558594 436.15625 413.515625 436.15625 C 417.710938 436.15625 421.382812 434.96875 424.53125 432.574219 C 426.207031 431.292969 427.851562 429.503906 429.472656 427.214844 L 450.277344 427.214844 C 448.75 431.84375 445.335938 436.535156 440.042969 441.308594 C 431.746094 448.890625 421.59375 452.679688 409.582031 452.679688 C 399.664062 452.679688 391.601562 449.488281 385.378906 443.097656 C 379.160156 436.707031 377.578125 426.3125 380.625 411.910156 C 383.484375 398.417969 389.09375 388.066406 397.46875 380.863281 C 405.832031 373.660156 415.476562 370.066406 426.402344 370.066406 C 432.882812 370.066406 438.476562 371.28125 443.167969 373.710938 C 447.847656 376.144531 451.324219 379.972656 453.558594 385.230469 Z M 403.507812 403.320312 L 435.183594 403.320312 C 435.992188 397.933594 435.222656 393.84375 432.855469 391.046875 C 430.492188 388.261719 427.148438 386.863281 422.808594 386.863281 C 418.089844 386.863281 414.117188 388.339844 410.902344 391.292969 C 407.6875 394.261719 405.21875 398.261719 403.507812 403.320312 Z M 403.507812 403.320312 "/>
<path style=" stroke:none;fill-rule:nonzero;fill:rgb(15.686275%,15.686275%,16.078431%);fill-opacity:1;" d="M 519.210938 344.011719 L 515.632812 360.613281 C 514.535156 360.46875 512.652344 360.367188 509.984375 360.289062 C 507.320312 360.222656 505.320312 360.808594 504.011719 362.078125 C 502.707031 363.347656 501.910156 364.730469 501.621094 366.261719 C 501.28125 367.789062 500.8125 369.988281 500.199219 372.835938 L 513.566406 372.835938 L 510.496094 387.214844 L 497.113281 387.214844 L 483.808594 450.089844 L 463.503906 450.089844 L 476.804688 387.214844 L 465.4375 387.214844 L 468.507812 372.835938 L 479.667969 372.835938 L 480.738281 367.828125 C 482.503906 359.488281 485.128906 353.738281 488.605469 350.589844 C 492.566406 345.910156 500.199219 343.582031 511.488281 343.582031 C 512.78125 343.582031 513.933594 343.621094 514.953125 343.6875 C 515.984375 343.765625 517.394531 343.871094 519.210938 344.011719 Z M 519.210938 344.011719 "/>
<path style=" stroke:none;fill-rule:nonzero;fill:rgb(15.686275%,15.686275%,16.078431%);fill-opacity:1;" d="M 529.730469 450.105469 L 509.34375 450.105469 L 531.730469 344.667969 L 552.117188 344.667969 Z M 529.730469 450.105469 "/>
<path style=" stroke:none;fill-rule:nonzero;fill:rgb(15.686275%,15.686275%,16.078431%);fill-opacity:1;" d="M 549.53125 465.058594 L 552.105469 465.203125 C 554.066406 465.292969 555.972656 465.230469 557.828125 464.992188 C 559.683594 464.757812 561.332031 464.210938 562.769531 463.347656 C 564.152344 462.535156 565.628906 460.835938 567.199219 458.261719 C 568.765625 455.6875 569.511719 454.117188 569.417969 453.542969 L 558.117188 372.128906 L 580.789062 372.128906 L 585.585938 429.648438 L 613.902344 372.128906 L 635.570312 372.128906 L 592.523438 448.824219 C 584.226562 463.609375 578.214844 472.769531 574.464844 476.328125 C 570.726562 479.882812 564.347656 481.660156 555.332031 481.660156 C 553.515625 481.660156 552.066406 481.648438 550.96875 481.621094 C 549.871094 481.59375 548.25 481.515625 546.105469 481.371094 Z M 549.53125 465.058594 "/>
</g>
</svg>
